<svg width="993" height="242" viewBox="0 0 993 242" fill="none" xmlns="http://www.w3.org/2000/svg">
<path d="M122.782 155.748C121.508 156.704 120.712 157.341 120.393 157.659C120.234 157.978 120.154 158.296 120.154 158.615C120.314 158.933 120.393 159.411 120.393 160.048C120.552 160.526 120.234 161.481 119.438 162.914C118.801 164.348 117.766 165.781 116.332 167.214C114.581 168.488 112.908 169.842 111.316 171.275C109.883 172.549 108.449 173.982 107.016 175.575C106.698 175.893 106.299 176.291 105.822 176.769C105.344 177.088 104.707 177.167 103.911 177.008C103.751 177.645 103.433 177.964 102.955 177.964C102.477 177.964 102.079 178.123 101.761 178.441C102.716 179.078 103.353 179.397 103.672 179.397C104.15 179.397 105.105 179.158 106.538 178.68C105.105 182.025 102.876 183.617 99.8498 183.458C100.168 183.458 100.168 183.776 99.8498 184.413C99.6905 185.05 100.089 185.21 101.044 184.891C101.522 184.573 101.761 184.573 101.761 184.891V185.847C101.602 186.006 101.363 186.165 101.044 186.324C100.885 186.324 100.805 186.404 100.805 186.563C100.168 187.837 99.2128 188.633 97.9388 188.952C96.824 189.27 95.8685 189.907 95.0722 190.863C94.4352 191.659 93.8778 192.535 93.4001 193.491C92.9223 194.287 92.2057 195.083 91.2502 195.879C89.9762 196.835 88.7818 197.95 87.667 199.224C86.7115 200.498 85.6764 201.772 84.5616 203.046C83.9246 203.842 83.2876 204.24 82.6506 204.24C82.0136 204.24 81.3766 204.399 80.7396 204.718C80.5803 205.673 80.2618 206.231 79.7841 206.39C79.3063 206.549 78.6693 206.629 77.8731 206.629C78.1916 207.425 78.2712 208.062 78.1119 208.54C78.1119 209.177 77.7138 209.734 76.9176 210.212C76.2805 210.849 75.6435 211.486 75.0065 212.123C74.5288 212.76 73.9714 213.397 73.3344 214.034C72.6974 214.671 72.14 215.308 71.6623 215.945C71.3438 216.582 70.5475 216.423 69.2735 215.467C68.4772 216.901 67.2828 218.493 65.6903 220.245C64.2571 221.997 62.7442 223.271 61.1517 224.067C60.5146 224.385 59.9573 224.863 59.4795 225.5C59.161 226.137 58.6833 226.695 58.0463 227.172C57.7277 227.491 57.25 227.969 56.613 228.606C56.1352 229.243 55.7371 229.402 55.4186 229.083C53.8261 228.446 52.8706 228.526 52.5521 229.322C52.3928 230.118 52.2336 230.915 52.0743 231.711C51.9151 233.304 51.2781 234.179 50.1633 234.339C49.2078 234.657 48.3319 235.215 47.5356 236.011C45.1469 239.037 42.5989 240.311 39.8916 239.833C37.9806 241.107 35.5122 241.664 32.4864 241.505C29.6198 241.346 27.0718 240.47 24.8423 238.877C23.5683 237.763 22.2147 236.727 20.7814 235.772C19.3481 234.976 17.676 234.418 15.765 234.1C14.6502 234.1 13.5354 233.383 12.4207 231.95C10.9874 229.72 9.15603 228.685 6.9265 228.844C6.44875 228.844 6.13025 228.685 5.971 228.367C5.65249 226.933 5.01549 225.739 4.05998 224.784C3.10447 223.828 2.22858 222.713 1.43233 221.439C0.476817 219.847 -0.000937255 218.254 -0.000937255 216.662C-0.000937255 214.91 0.0786884 213.238 0.23794 211.645C0.23794 210.212 0.317566 208.699 0.476817 207.107C0.476817 204.718 0.874946 202.488 1.6712 200.418C2.30821 198.189 2.78596 195.959 3.10447 193.73C3.10447 192.933 3.58222 192.455 4.53773 192.296C5.01549 192.296 5.49324 192.137 5.971 191.818C6.2895 191.341 5.81174 190.943 4.53773 190.624C4.05998 190.465 3.98035 189.907 4.29885 188.952C4.45811 186.563 5.33399 184.493 6.9265 182.741C7.24501 182.423 7.48388 182.184 7.64314 182.025C7.64314 181.865 7.48388 181.626 7.16538 181.308C6.68763 181.149 6.608 180.591 6.9265 179.636C7.56351 178.839 8.20052 177.486 8.83752 175.575C9.31528 173.664 9.71341 172.231 10.0319 171.275C10.3504 170.479 10.6689 169.683 10.9874 168.886C11.1467 168.09 11.5448 167.294 12.1818 166.497C12.9781 165.542 13.8539 164.507 14.8095 163.392C15.9242 162.277 16.0835 160.844 15.2872 159.092C16.5612 157.818 17.2779 156.385 17.4371 154.793C17.7556 153.2 18.313 151.687 19.1092 150.254C19.4278 148.98 20.0648 147.865 21.0203 146.91C21.9758 145.954 22.6128 144.839 22.9313 143.565C23.0905 142.61 23.8072 142.291 25.0812 142.61C25.5589 141.814 26.1163 141.097 26.7533 140.46C27.5496 139.664 27.7885 138.628 27.47 137.354C27.3107 136.717 27.47 136.001 27.9477 135.205C28.5847 134.249 29.4606 133.612 30.5754 133.294C31.5309 132.975 32.3271 132.418 32.9641 131.621C33.6011 130.825 33.9993 130.029 34.1585 129.233C34.1585 127.162 35.114 125.57 37.025 124.455C37.3435 124.137 37.4232 123.898 37.2639 123.738C37.2639 123.579 37.2639 123.34 37.2639 123.022C37.5824 122.226 38.0602 121.35 38.6972 120.394C39.4934 119.279 40.1305 118.563 40.6082 118.244L42.997 116.333C43.7932 115.696 43.9525 114.741 43.4747 113.467C43.1562 113.148 43.1562 112.909 43.4747 112.75C43.7932 112.432 44.1117 112.193 44.4302 112.033C45.7043 111.396 46.5005 110.521 46.819 109.406C47.1375 108.291 47.6949 107.176 48.4912 106.062C48.3319 105.425 48.73 104.628 49.6855 103.673C50.1633 103.195 50.1633 102.638 49.6855 102.001C48.73 100.408 49.8448 99.6118 53.0298 99.6118C53.8261 98.1786 54.6223 96.8249 55.4186 95.5509C56.2149 94.2769 56.9315 92.8437 57.5685 91.2511C57.887 90.4549 58.4444 89.8975 59.2406 89.579C60.0369 89.2605 60.5943 88.4642 60.9128 87.1902C61.2313 86.2347 61.4702 85.6773 61.6294 85.5181C61.9479 85.3588 62.1072 85.12 62.1072 84.8014C62.5849 83.6867 63.1423 82.8108 63.7793 82.1738C64.5756 81.5368 65.6107 81.2183 66.8847 81.2183C66.7255 79.6258 67.2032 78.4314 68.318 77.6351C69.592 76.6796 70.3882 75.5649 70.7067 74.2908C70.866 73.9723 71.0253 74.052 71.1845 74.5297C71.503 75.0075 71.9011 75.326 72.3789 75.4852C72.5381 75.326 72.777 74.9279 73.0955 74.2908C73.0955 72.6983 73.1751 71.8225 73.3344 71.6632C73.6529 71.3447 74.5288 71.1058 75.962 70.9466C75.962 69.6725 76.2805 68.717 76.9176 68.08C80.1026 65.6913 82.8895 62.984 85.2783 59.9582C87.667 56.9324 90.4539 54.2252 93.639 51.8364C95.8685 50.0846 97.9388 48.2532 99.8498 46.3422C101.761 44.2719 103.831 42.3609 106.061 40.6091L108.449 38.2204C109.086 37.5834 110.042 37.3445 111.316 37.5037C114.023 37.663 116.571 36.8667 118.96 35.115C120.712 34.0002 122.304 34.0002 123.738 35.115C125.967 36.8667 128.037 38.6981 129.948 40.6091C132.019 42.5202 133.293 45.0682 133.77 48.2532C133.93 48.731 134.009 49.2087 134.009 49.6865C134.168 50.1642 134.168 50.5624 134.009 50.8809C132.735 53.1104 131.939 55.4195 131.62 57.8083C131.302 60.1971 130.904 62.5859 130.426 64.9746C129.471 68.3189 128.037 71.4243 126.126 74.2908C124.215 77.7944 122.304 81.3775 120.393 85.0403C118.641 88.5439 116.651 91.9678 114.421 95.312C113.784 96.4268 113.147 97.5416 112.51 98.6563C112.033 99.6118 111.316 100.488 110.36 101.284C109.883 101.602 109.485 102.239 109.166 103.195C108.529 105.265 107.653 107.256 106.538 109.167C105.583 111.078 104.627 112.989 103.672 114.9C102.716 116.97 101.92 118.165 101.283 118.483C100.805 118.802 99.4517 118.881 97.2221 118.722C96.5851 118.563 95.6296 118.642 94.3556 118.961C93.7186 119.12 93.0816 119.439 92.4446 119.916C91.8076 120.394 91.0909 120.235 90.2947 119.439C89.3392 118.642 88.3837 117.926 87.4282 117.289C86.4727 116.493 85.756 115.537 85.2783 114.422C84.9598 113.148 84.9598 112.033 85.2783 111.078C85.756 109.963 86.393 109.008 87.1893 108.211L91.9668 103.912C93.5593 102.478 95.1519 101.125 96.7444 99.8507C97.6999 98.8952 98.4961 97.9397 99.1332 96.9842C99.7702 95.8694 100.566 94.8343 101.522 93.8788C101.84 93.5603 102.159 93.1622 102.477 92.6844C102.955 92.2066 103.353 91.6493 103.672 91.0123C104.627 89.7382 105.662 88.5439 106.777 87.4291C108.051 86.1551 109.086 84.7218 109.883 83.1293C111.157 80.8998 112.271 78.7499 113.227 76.6796C114.342 74.6093 115.536 72.4594 116.81 70.2299C117.925 68.4782 118.801 66.6468 119.438 64.7357C120.075 62.6655 121.269 60.9137 123.021 59.4805C122.702 58.6842 122.543 57.8879 122.543 57.0917C122.702 56.2954 122.862 55.2603 123.021 53.9863C120.632 55.101 118.403 56.375 116.332 57.8083C114.421 59.0823 112.51 60.3563 110.599 61.6304C110.122 61.9489 109.803 62.5062 109.644 63.3025C109.644 63.9395 109.485 64.5765 109.166 65.2135C109.325 68.3985 107.733 70.2299 104.388 70.7077C103.751 71.5039 102.876 72.0613 101.761 72.3798C100.646 72.6983 100.328 73.7335 100.805 75.4852C101.124 76.4407 100.885 77.3962 100.089 78.3518C99.2924 79.148 98.4961 79.7054 97.6999 80.0239C96.2666 80.3424 95.3907 80.9794 95.0722 81.9349C94.7537 82.8904 94.276 83.7663 93.639 84.5626C93.3205 84.8811 93.1612 85.2792 93.1612 85.757C93.3205 86.0755 93.1612 86.394 92.6835 86.7125C91.8872 87.1902 90.9317 87.4291 89.8169 87.4291C88.7022 87.4291 88.1448 88.3846 88.1448 90.2956C88.1448 91.0919 87.5874 91.8085 86.4727 92.4455C85.3579 92.9233 84.6413 93.7195 84.3228 94.8343C84.1635 95.1528 83.845 95.4713 83.3672 95.7898C82.8895 95.9491 83.0487 96.4268 83.845 97.2231C84.3228 97.5416 84.2431 97.7805 83.6061 97.9397C83.1284 98.099 82.7302 98.2582 82.4117 98.4175H80.9785C80.5007 98.4175 80.4211 98.9748 80.7396 100.09C81.2173 102.16 80.5007 104.389 78.5897 106.778C77.9527 107.574 77.3157 108.371 76.6787 109.167C76.2009 109.963 75.962 110.919 75.962 112.033C75.962 112.352 75.6435 112.989 75.0065 113.944C69.4327 120.633 64.9737 127.799 61.6294 135.443C61.3109 135.921 60.9924 136.479 60.6739 137.116C60.5146 137.593 60.1165 137.991 59.4795 138.31C59.0018 138.947 58.4444 139.902 57.8074 141.176C57.8074 141.336 57.6481 141.575 57.3296 141.893C56.5334 143.167 55.8167 144.441 55.1797 145.715C54.5427 146.989 54.065 148.422 53.7465 150.015C53.428 151.289 52.9502 152.563 52.3132 153.837C51.6762 155.111 50.9596 156.385 50.1633 157.659C49.2078 158.933 48.4115 160.207 47.7745 161.481C47.2968 162.755 46.6598 164.029 45.8635 165.303C45.7043 165.781 45.6246 166.338 45.6246 166.975C45.6246 167.453 45.545 168.01 45.3858 168.647C45.0672 170.718 44.3506 172.549 43.2359 174.142C42.1211 175.575 40.8471 176.928 39.4138 178.202C39.0953 178.68 38.6972 178.919 38.2194 178.919C39.1749 179.715 39.4934 180.432 39.1749 181.069C38.8564 181.706 38.2194 182.184 37.2639 182.502C36.1492 183.776 35.4325 185.13 35.114 186.563C34.7955 187.996 34.477 189.509 34.1585 191.102C33.9993 191.898 33.7604 192.217 33.4419 192.057C33.2826 191.898 33.0438 191.818 32.7253 191.818C33.0438 192.615 33.0438 193.491 32.7253 194.446C32.566 195.242 32.3271 196.118 32.0086 197.074C31.6901 198.029 31.2124 198.985 30.5754 199.94C29.9384 200.896 29.381 201.851 28.9032 202.807C29.2217 204.559 28.9828 206.231 28.1866 207.823C27.5496 209.416 27.0718 211.088 26.7533 212.84C26.5941 213.158 26.2756 213.636 25.7978 214.273C25.4793 214.91 24.9219 215.308 24.1257 215.467C23.8072 215.467 23.5683 215.547 23.409 215.706C23.2498 215.865 23.2498 216.025 23.409 216.184C24.2053 216.502 24.6831 216.821 24.8423 217.139C25.0016 217.458 25.0016 217.856 24.8423 218.334C24.8423 218.812 24.6831 219.21 24.3645 219.528C24.2053 220.006 24.1257 220.484 24.1257 220.962C24.2849 221.917 24.2053 222.873 23.8868 223.828C23.7275 224.943 23.5683 226.058 23.409 227.172C25.4793 227.65 27.2311 227.411 28.6643 226.456C30.2569 225.5 31.929 225.022 33.6808 225.022H34.1585L34.3974 225.261V225.5C34.3974 225.659 34.3178 225.739 34.1585 225.739C34.1585 225.739 34.1585 225.819 34.1585 225.978C33.6808 226.296 33.5215 226.695 33.6808 227.172C33.9993 227.65 34.3974 227.73 34.8752 227.411C36.6269 226.615 38.2991 225.819 39.8916 225.022C41.6433 224.385 43.1562 223.43 44.4302 222.156C46.182 221.2 47.8542 220.165 49.4467 219.05C51.0392 218.095 52.4724 216.821 53.7465 215.228C54.3835 214.432 55.1001 214.114 55.8964 214.273C56.5334 214.432 57.0111 214.193 57.3296 213.556C58.2851 211.645 59.5591 210.292 61.1517 209.495C62.7442 208.858 64.4163 208.301 66.1681 207.823C66.9643 207.505 67.3625 207.107 67.3625 206.629C67.5217 206.151 67.9198 205.753 68.5569 205.434C69.0346 204.638 69.5124 203.922 69.9901 203.285C70.4679 202.807 71.2641 202.648 72.3789 202.807C72.8566 202.648 73.0955 202.329 73.0955 201.851C73.0955 201.214 73.414 200.896 74.051 200.896C75.0065 200.1 75.8824 199.383 76.6787 198.746C77.6342 198.109 78.3508 197.153 78.8286 195.879C79.1471 195.242 79.7841 194.844 80.7396 194.685C81.6951 194.367 82.571 193.809 83.3672 193.013C84.1635 192.217 85.119 191.58 86.2338 191.102C87.5078 190.624 88.2244 189.509 88.3837 187.758C89.8169 187.439 90.8521 186.802 91.4891 185.847C92.2853 184.732 93.2408 183.856 94.3556 183.219C94.5149 183.06 94.5945 182.9 94.5945 182.741C94.7537 182.582 94.9926 182.423 95.3111 182.263C95.6296 181.308 95.8685 180.432 96.0277 179.636C96.187 178.839 96.9036 178.282 98.1776 177.964C99.1331 177.804 99.6109 177.247 99.6109 176.291C99.6109 175.336 100.089 174.699 101.044 174.38L100.805 174.142C101.283 171.753 102.557 170.24 104.627 169.603C104.627 168.488 105.264 167.931 106.538 167.931V167.692C106.857 167.373 107.096 167.055 107.255 166.736C107.573 166.259 107.892 165.86 108.21 165.542C108.529 165.064 108.847 164.586 109.166 164.109C109.166 163.472 109.405 163.153 109.883 163.153C110.52 162.835 110.918 162.357 111.077 161.72C111.396 160.924 111.953 160.446 112.749 160.287C113.545 159.49 114.023 158.933 114.182 158.615C114.819 157.341 115.536 156.305 116.332 155.509C117.129 154.713 118.323 154.633 119.915 155.27C119.915 154.474 119.756 154.076 119.438 154.076C119.278 153.917 119.04 153.757 118.721 153.598C118.403 153.28 118.084 153.041 117.766 152.881C117.606 152.722 117.925 152.563 118.721 152.404C119.04 152.404 119.278 152.483 119.438 152.643C119.756 152.802 119.995 152.643 120.154 152.165L122.782 155.748ZM33.4419 165.781H33.6808H33.4419ZM54.4631 117.289V117.528H54.702L54.4631 117.289ZM29.8587 141.893C28.107 143.008 27.8681 144.202 29.1421 145.476C29.7791 145.954 30.1772 145.874 30.3365 145.237C30.655 144.6 30.9735 144.123 31.292 143.804C31.6105 143.645 31.8494 143.645 32.0086 143.804C32.3271 143.804 32.6456 143.725 32.9641 143.565C33.9196 143.247 34.0789 142.769 33.4419 142.132C33.1234 141.813 32.8049 141.734 32.4864 141.893C32.3271 142.052 32.0882 142.132 31.7697 142.132C31.4512 142.769 31.1327 143.008 30.8142 142.849C30.4957 142.53 30.1772 142.212 29.8587 141.893ZM101.283 152.643C100.965 152.643 100.805 152.483 100.805 152.165C100.805 151.528 100.965 151.209 101.283 151.209C101.92 151.209 102.239 151.528 102.239 152.165C101.92 152.643 101.602 152.802 101.283 152.643ZM173.605 91.0123C175.994 90.6938 178.542 91.1715 181.249 92.4455C183.956 93.7195 185.867 95.3917 186.982 97.4619C188.097 99.5322 188.654 101.921 188.654 104.628C188.814 108.928 188.495 113.228 187.699 117.528C187.062 121.668 185.549 125.649 183.16 129.472C181.408 132.02 180.294 134.647 179.816 137.354C179.497 138.151 179.179 139.027 178.86 139.982C178.542 140.778 178.064 141.495 177.427 142.132C175.835 143.565 174.401 145.158 173.127 146.91C172.012 148.661 170.898 150.493 169.783 152.404C168.668 154.155 167.474 155.907 166.2 157.659C164.926 159.252 163.413 160.764 161.661 162.198C160.069 163.472 158.795 165.144 157.839 167.214C157.043 169.125 156.008 170.957 154.734 172.708C152.345 175.893 149.956 179.158 147.567 182.502C145.179 185.847 142.392 188.872 139.207 191.58C138.888 193.013 138.092 193.809 136.818 193.968C136.818 195.242 136.181 196.039 134.907 196.357C133.792 199.542 131.961 202.011 129.413 203.762C127.024 205.514 124.715 207.346 122.485 209.257C120.256 211.168 118.424 212.521 116.991 213.317C115.717 214.273 114.523 214.671 113.408 214.512C112.293 214.512 111.178 213.954 110.064 212.84C108.79 211.725 107.117 210.132 105.047 208.062C101.066 204.24 98.5975 200.02 97.642 195.402C96.6865 190.783 96.368 186.006 96.6865 181.069C97.1643 174.38 98.4383 167.931 100.509 161.72C102.42 155.35 104.968 149.219 108.153 143.326C109.267 141.256 110.462 139.265 111.736 137.354C112.851 135.284 113.806 133.134 114.602 130.905C117.31 124.694 121.211 119.12 126.307 114.183C129.492 111.317 132.12 111.635 134.19 115.139C135.942 117.687 137.057 120.315 137.535 123.022C137.694 124.455 137.614 125.729 137.296 126.844C137.136 127.959 136.659 129.073 135.862 130.188C128.696 139.265 123.202 149.298 119.38 160.287C119.221 160.764 118.982 161.242 118.663 161.72C118.504 162.198 118.265 162.675 117.947 163.153C117.15 164.427 116.195 166.259 115.08 168.647C113.965 171.036 112.93 173.584 111.975 176.291C111.019 178.839 110.223 181.388 109.586 183.936C108.949 186.324 108.551 188.315 108.392 189.907C108.232 190.704 108.232 191.58 108.392 192.535C108.392 193.491 108.471 194.367 108.63 195.163C115 193.411 120.017 190.465 123.68 186.324C124.476 185.369 125.272 184.493 126.068 183.697C127.024 182.741 128.298 182.343 129.89 182.502C131.801 180.273 133.713 178.202 135.624 176.291C137.694 174.221 139.366 171.673 140.64 168.647C141.595 166.418 142.949 164.427 144.701 162.675C146.453 160.764 148.125 158.853 149.717 156.942C153.062 151.209 156.326 145.556 159.511 139.982C162.856 134.249 166.279 128.596 169.783 123.022C171.535 120.315 173.048 117.528 174.322 114.661C175.755 111.795 176.551 108.689 176.71 105.345C173.207 105.663 170.5 106.937 168.589 109.167C166.678 111.237 164.607 113.307 162.378 115.378C161.422 116.493 160.546 117.767 159.75 119.2C158.954 120.474 157.759 121.35 156.167 121.827C155.53 126.446 153.778 130.188 150.912 133.055C148.045 135.762 145.019 138.469 141.834 141.176C141.357 138.947 141.118 137.036 141.118 135.443C141.118 133.851 141.357 132.258 141.834 130.666C142.312 128.914 143.108 127.003 144.223 124.933C145.497 122.863 147.169 120.315 149.24 117.289C149.558 115.855 149.877 114.502 150.195 113.228C150.514 111.795 151.628 110.919 153.539 110.6C155.61 107.734 157.6 105.026 159.511 102.478C161.582 99.7711 163.891 97.2231 166.439 94.8343C168.827 92.6048 171.216 91.3308 173.605 91.0123ZM295.867 96.5064C296.345 98.8952 296.504 101.284 296.345 103.673C296.345 105.902 295.39 107.973 293.478 109.884C292.841 110.521 292.284 111.237 291.806 112.033C291.329 112.67 291.169 113.467 291.329 114.422C291.329 115.537 291.09 116.333 290.612 116.811C290.134 117.289 289.418 117.767 288.462 118.244C285.914 119.359 283.286 119.678 280.579 119.2C278.031 118.722 275.483 119.041 272.935 120.155C272.776 120.155 272.696 120.076 272.696 119.916V119.439C272.696 117.846 272.537 116.891 272.218 116.572C271.9 116.254 271.502 116.174 271.024 116.333C270.546 116.493 270.069 116.811 269.591 117.289C269.113 117.767 268.635 118.005 268.158 118.005C265.928 118.483 263.619 118.961 261.23 119.439C259.001 119.757 256.771 120.076 254.541 120.394C251.993 120.713 249.445 120.872 246.897 120.872C244.509 120.872 242.12 120.792 239.731 120.633C236.387 120.315 233.839 121.509 232.087 124.216C228.743 129.949 224.841 135.284 220.382 140.221C216.082 145.158 212.181 150.493 208.677 156.226C206.766 159.411 204.696 162.596 202.466 165.781C200.396 168.966 198.166 171.992 195.778 174.858C194.344 176.61 193.07 178.441 191.956 180.352C190.841 182.104 189.408 183.697 187.656 185.13C187.815 187.359 187.258 189.191 185.984 190.624C184.71 191.898 183.675 193.411 182.878 195.163C181.923 198.348 180.808 200.1 179.534 200.418C178.26 200.737 176.349 199.622 173.801 197.074C173.005 196.278 172.447 195.481 172.129 194.685C171.81 193.73 171.492 192.774 171.173 191.818C170.536 190.067 170.855 188.395 172.129 186.802C174.199 184.095 176.19 181.467 178.101 178.919C180.012 176.212 181.923 173.505 183.834 170.797C185.586 168.568 187.178 166.259 188.611 163.87C190.045 161.481 191.08 158.933 191.717 156.226C192.513 153.837 193.548 151.607 194.822 149.537C195.937 147.467 197.211 145.556 198.644 143.804C199.918 141.893 201.113 140.062 202.227 138.31C203.342 136.399 204.537 134.568 205.811 132.816C206.448 131.86 206.686 130.984 206.527 130.188C206.368 129.392 206.129 128.596 205.811 127.799C204.377 128.596 202.864 128.834 201.272 128.516C199.679 128.038 198.087 127.959 196.494 128.277C195.857 128.277 195.38 128.038 195.061 127.56C194.583 127.083 194.185 126.605 193.867 126.127C193.548 125.331 193.309 124.535 193.15 123.738C192.991 122.783 192.832 121.827 192.672 120.872C192.513 119.439 192.911 118.244 193.867 117.289C194.663 116.174 195.778 115.776 197.211 116.094C199.281 116.413 201.113 116.493 202.705 116.333C204.457 116.174 206.129 115.457 207.722 114.183C208.518 113.865 209.075 113.865 209.394 114.183C210.031 114.98 210.668 115.378 211.305 115.378C211.942 115.378 212.579 115.218 213.216 114.9L214.888 113.944C215.366 113.626 215.923 113.546 216.56 113.706C219.108 111.954 221.019 109.804 222.293 107.256L226.115 99.6118C228.345 95.312 230.415 91.0123 232.326 86.7125C234.237 82.2534 236.307 77.7148 238.537 73.0965C241.403 75.0075 243.075 77.3963 243.553 80.2628C244.19 82.9701 245.066 85.6773 246.181 88.3846C246.818 89.9771 247.057 91.49 246.897 92.9233C246.738 94.3565 246.42 95.7898 245.942 97.2231C245.623 98.4971 245.225 99.8507 244.748 101.284C244.27 102.558 243.951 103.912 243.792 105.345C245.066 106.3 246.34 106.699 247.614 106.539C248.888 106.38 250.082 106.141 251.197 105.823C254.701 104.549 258.204 103.514 261.708 102.717C265.211 101.921 268.795 101.443 272.457 101.284C274.05 101.284 275.563 100.965 276.996 100.328C278.429 99.6915 280.022 99.6915 281.774 100.328C283.048 98.4175 284.64 97.4619 286.551 97.4619C288.621 97.3027 290.532 96.7453 292.284 95.7898C294.354 94.9935 295.549 95.2324 295.867 96.5064ZM370.632 164.109C371.428 164.427 371.986 165.223 372.304 166.497C372.623 167.772 372.623 168.807 372.304 169.603C371.667 170.718 371.03 171.514 370.393 171.992C366.73 174.062 363.307 176.451 360.122 179.158C357.096 181.706 353.592 183.697 349.611 185.13C348.496 186.404 347.222 187.519 345.789 188.474C344.356 189.27 342.922 190.067 341.489 190.863C339.1 192.137 336.632 193.331 334.084 194.446C331.536 195.402 329.306 196.915 327.395 198.985C326.918 199.463 326.042 200.02 324.768 200.657C323.494 200.975 322.14 201.453 320.707 202.09C319.433 202.568 318.238 202.568 317.124 202.09C315.372 201.453 313.859 200.418 312.585 198.985C311.311 197.392 310.515 195.641 310.196 193.73C309.718 191.022 309.48 188.395 309.48 185.847C309.48 183.139 310.196 180.432 311.629 177.725C313.381 174.54 314.894 171.195 316.168 167.692C317.442 164.188 318.875 160.685 320.468 157.181C319.194 157.181 318.079 157.42 317.124 157.898C316.327 158.376 315.77 158.933 315.451 159.57C313.063 163.392 310.196 166.816 306.852 169.842C303.508 172.868 300.402 176.053 297.536 179.397C294.828 182.582 291.962 185.767 288.936 188.952C286.07 191.978 283.123 195.004 280.098 198.029L279.381 198.746C274.444 201.453 269.985 204.638 266.004 208.301C262.023 211.964 257.643 215.149 252.866 217.856C251.114 218.812 249.84 219.21 249.044 219.05C248.247 218.891 247.133 218.175 245.699 216.901C242.355 213.716 240.444 210.292 239.966 206.629C239.329 202.966 239.648 199.144 240.922 195.163C241.559 193.092 242.275 191.022 243.072 188.952C243.868 186.882 245.062 184.971 246.655 183.219C247.292 179.397 249.282 176.212 252.627 173.664C255.016 170.479 257.404 167.373 259.793 164.348C262.182 161.322 264.65 158.216 267.198 155.031C268.632 153.28 270.304 153.359 272.215 155.27C273.17 156.226 273.887 157.022 274.365 157.659C279.301 164.348 278.903 170.399 273.17 175.814C269.985 178.839 267.198 182.104 264.809 185.608C262.261 188.952 259.713 192.455 257.165 196.118C256.847 196.437 256.688 196.915 256.688 197.552C256.688 198.029 256.608 198.666 256.449 199.463C258.997 198.666 261.226 197.552 263.137 196.118C264.889 194.685 266.72 193.331 268.632 192.057C272.135 189.669 275.479 187.2 278.664 184.652C281.849 182.104 284.796 179.238 287.503 176.053C290.688 172.39 294.032 168.966 297.536 165.781C301.039 162.596 304.463 159.331 307.807 155.987C311.948 151.846 315.929 147.626 319.751 143.326C323.733 139.027 327.555 134.568 331.217 129.949C332.969 127.879 334.562 125.729 335.995 123.5C337.428 121.111 339.419 119.2 341.967 117.767C342.126 117.13 342.285 116.493 342.445 115.855C342.763 115.218 343.002 114.581 343.161 113.944C343.32 113.307 343.241 112.75 342.922 112.272C342.604 111.635 342.206 111.476 341.728 111.795C340.454 112.272 339.18 112.67 337.906 112.989C336.632 113.148 335.358 113.307 334.084 113.467C332.81 113.626 331.536 113.865 330.262 114.183C329.147 114.502 328.112 115.139 327.156 116.094C325.882 117.368 324.449 117.926 322.857 117.767C321.264 117.607 319.751 117.767 318.318 118.244C315.133 119.2 311.948 120.315 308.763 121.589C305.737 122.703 303.03 124.614 300.641 127.322C299.686 128.436 298.73 128.914 297.775 128.755C296.978 128.436 296.341 127.64 295.864 126.366C294.112 122.703 293.634 119.359 294.43 116.333C295.386 113.148 298.173 110.282 302.791 107.734C304.224 107.097 305.817 106.619 307.569 106.3C308.683 105.982 309.718 105.823 310.674 105.823C311.789 105.663 312.744 105.345 313.54 104.867C316.407 103.115 319.433 102.319 322.618 102.478C325.962 102.478 329.147 102.001 332.173 101.045C332.81 100.727 333.527 100.567 334.323 100.567C335.119 100.408 335.676 100.488 335.995 100.806C337.906 102.239 339.658 102.797 341.25 102.478C342.843 102.16 344.515 101.523 346.267 100.567C349.133 98.9748 352 98.4971 354.866 99.1341C357.892 99.7711 360.759 100.488 363.466 101.284C364.421 101.602 365.456 101.921 366.571 102.239C367.845 102.558 369.04 102.956 370.154 103.434C370.314 103.593 370.632 104.071 371.11 104.867C371.269 105.504 371.19 105.823 370.871 105.823C370.553 105.663 370.234 105.663 369.915 105.823C367.686 106.619 366.173 107.415 365.377 108.211C364.74 109.008 364.501 110.282 364.66 112.033C364.819 113.307 364.979 114.502 365.138 115.617C365.297 116.731 365.456 117.926 365.616 119.2C365.775 120.952 365.536 122.464 364.899 123.738C364.421 125.012 363.386 126.048 361.794 126.844C361.475 128.596 360.759 130.188 359.644 131.621C358.529 132.895 357.414 134.169 356.299 135.443C354.388 137.673 352.398 139.902 350.328 142.132C348.417 144.202 346.585 146.352 344.833 148.582C343.719 150.174 342.763 151.767 341.967 153.359C341.171 154.952 340.295 156.624 339.339 158.376C337.269 162.357 335.199 166.338 333.128 170.32C331.058 174.142 328.988 178.043 326.918 182.025C326.281 183.299 326.519 184.174 327.634 184.652C327.953 184.811 328.271 184.891 328.59 184.891H329.545L334.562 183.458C338.065 181.228 341.569 179.158 345.072 177.247C348.576 175.336 352.239 173.584 356.061 171.992C358.131 171.195 360.042 170.16 361.794 168.886C363.545 167.453 365.297 166.099 367.049 164.825C368.323 163.551 369.517 163.312 370.632 164.109ZM476.912 168.886C478.505 168.249 479.779 168.09 480.734 168.409C481.849 168.727 482.406 170.001 482.406 172.231H482.167C482.167 173.505 481.53 174.38 480.256 174.858C478.505 176.291 476.355 177.964 473.807 179.875C471.259 181.786 469.268 183.936 467.835 186.324C464.331 188.554 460.987 191.102 457.802 193.968C454.776 196.676 451.432 199.144 447.769 201.374V201.612C446.336 203.364 444.584 204.32 442.514 204.479H442.753C442.275 205.275 441.638 205.753 440.842 205.912C440.045 206.231 439.249 206.549 438.453 206.868C437.019 207.664 435.586 207.823 434.153 207.346C432.72 207.027 431.366 206.39 430.092 205.434C427.066 203.046 424.677 200.418 422.926 197.552C421.333 194.526 420.696 191.022 421.015 187.041C421.015 186.722 421.015 186.324 421.015 185.847C421.174 185.369 421.254 184.971 421.254 184.652C420.457 182.582 420.298 180.512 420.776 178.441C420.457 179.238 420.378 178.919 420.537 177.486C420.696 175.893 421.094 173.982 421.731 171.753C421.254 172.071 420.776 172.39 420.298 172.708C419.98 173.027 419.581 173.345 419.104 173.664C417.989 174.619 417.113 175.654 416.476 176.769C415.839 177.884 415.043 178.919 414.087 179.875C413.132 180.671 412.813 181.467 413.132 182.263C413.45 183.06 413.052 183.776 411.937 184.413C411.619 184.732 410.902 185.448 409.787 186.563C408.832 187.678 408.195 188.395 407.876 188.713C407.717 189.828 406.841 190.385 405.249 190.385C403.816 192.615 402.064 195.322 399.994 198.507C398.082 201.533 395.057 204.559 390.916 207.584C389.961 208.381 388.926 209.018 387.811 209.495C386.696 209.973 385.661 210.61 384.705 211.406C383.272 212.362 381.918 212.76 380.644 212.601C379.37 212.442 378.017 211.964 376.584 211.168C375.31 210.371 374.195 209.416 373.239 208.301C372.284 207.346 371.01 206.709 369.417 206.39C368.939 206.39 368.541 205.833 368.223 204.718C366.79 202.17 365.675 199.542 364.879 196.835C363.923 193.968 363.366 191.102 363.206 188.235C362.888 182.821 363.684 177.804 365.595 173.186C365.595 169.205 366.79 165.781 369.178 162.914C369.815 162.118 370.293 161.322 370.612 160.526C370.771 159.57 371.01 158.694 371.328 157.898C371.647 157.102 371.965 156.385 372.284 155.748C372.602 154.952 373.319 154.474 374.434 154.315C375.071 152.404 376.106 150.811 377.539 149.537C378.972 148.263 380.087 146.75 380.883 144.999C382.317 141.654 384.626 138.867 387.811 136.638C388.129 136.479 388.607 135.921 389.244 134.966C390.04 134.169 390.677 133.214 391.155 132.099C391.633 130.984 392.429 130.109 393.544 129.472C394.818 128.834 395.614 127.879 395.933 126.605C396.251 125.331 397.047 124.535 398.321 124.216C399.436 123.898 399.755 123.261 399.277 122.305C398.958 121.19 399.357 120.474 400.471 120.155C401.427 119.837 401.905 119.359 401.905 118.722C402.064 118.085 402.303 117.448 402.621 116.811C403.099 116.015 403.577 115.298 404.054 114.661C404.532 114.024 405.249 113.626 406.204 113.467C408.434 113.467 408.832 112.67 407.399 111.078C407.558 110.759 407.717 110.521 407.876 110.361L408.593 109.645C410.982 108.052 413.291 106.539 415.521 105.106C417.909 103.673 420.298 102.16 422.687 100.567C423.961 99.7711 425.235 98.9748 426.509 98.1786C427.783 97.2231 429.057 96.2676 430.331 95.312C432.083 93.7195 433.675 92.9233 435.108 92.9233C436.701 92.764 438.612 93.3214 440.842 94.5954C442.116 95.3917 443.31 96.1879 444.425 96.9842C445.699 97.7804 446.734 98.8156 447.53 100.09C448.963 101.364 449.919 102.797 450.397 104.389C451.034 105.982 451.591 107.654 452.069 109.406C452.706 111.476 452.148 113.387 450.397 115.139C450.556 115.457 450.476 115.855 450.158 116.333C449.68 117.289 449.361 118.324 449.202 119.439C449.202 120.553 448.645 121.509 447.53 122.305C445.46 127.879 442.514 132.497 438.692 136.16C437.895 136.956 437.338 137.912 437.019 139.027C436.86 139.982 436.303 140.778 435.347 141.415C434.392 142.052 433.436 142.689 432.481 143.326C431.685 143.963 430.888 144.6 430.092 145.237C429.296 145.874 428.42 146.034 427.464 145.715C426.509 145.397 425.872 144.76 425.553 143.804C425.076 142.212 424.837 140.778 424.837 139.504C424.837 138.23 425.474 136.797 426.748 135.205C428.022 133.612 429.455 132.258 431.048 131.144C432.799 130.029 433.994 128.357 434.631 126.127C436.382 125.331 437.497 124.137 437.975 122.544C438.612 120.792 439.329 119.2 440.125 117.767C439.966 117.289 440.045 116.731 440.364 116.094C440.682 115.457 440.443 114.9 439.647 114.422C437.895 114.9 436.303 115.537 434.87 116.333C433.596 117.13 432.322 118.085 431.048 119.2C429.137 120.792 427.226 122.305 425.315 123.738C423.563 125.172 421.891 126.844 420.298 128.755C419.343 129.87 418.387 130.905 417.432 131.86C416.476 132.816 415.68 134.01 415.043 135.443C414.406 136.877 413.371 138.23 411.937 139.504C410.663 140.619 409.31 141.575 407.876 142.371C405.806 143.645 404.214 145.078 403.099 146.671C401.347 149.059 399.357 151.448 397.127 153.837C395.057 156.067 393.703 158.853 393.066 162.198C392.748 163.312 392.111 164.348 391.155 165.303C389.085 167.373 387.413 169.683 386.139 172.231C384.705 174.619 383.431 177.167 382.317 179.875C381.202 182.104 379.769 184.334 378.017 186.563C376.584 187.996 375.628 189.669 375.15 191.58C374.673 193.491 374.036 195.322 373.239 197.074C373.08 197.711 372.921 198.427 372.761 199.224C372.602 199.861 372.921 200.418 373.717 200.896C374.354 201.374 374.991 201.533 375.628 201.374C376.106 201.214 376.663 200.975 377.3 200.657C378.893 200.02 380.167 199.303 381.122 198.507C381.918 197.711 383.033 196.915 384.466 196.118L388.05 194.685C389.642 194.048 390.837 193.65 391.633 193.491C392.907 191.58 393.783 189.987 394.26 188.713C394.897 187.28 396.171 186.324 398.082 185.847C398.401 185.687 398.719 185.608 399.038 185.608C399.516 185.608 399.834 185.448 399.994 185.13C401.268 183.378 402.462 181.706 403.577 180.113C404.851 178.521 406.125 176.849 407.399 175.097C407.717 174.779 408.115 174.619 408.593 174.619C409.071 174.46 409.469 174.221 409.787 173.903C410.265 173.743 410.743 173.664 411.221 173.664C411.698 173.505 412.097 173.266 412.415 172.947C413.689 171.673 414.406 170.479 414.565 169.364C414.884 168.249 415.839 167.214 417.432 166.259C418.228 165.781 419.104 165.303 420.059 164.825C421.174 164.348 421.97 163.312 422.448 161.72C422.766 160.764 423.483 160.127 424.598 159.809C425.872 159.331 426.907 158.535 427.703 157.42C428.181 156.624 428.898 155.987 429.853 155.509C430.809 153.917 432.242 153.2 434.153 153.359C434.471 153.041 434.71 152.802 434.87 152.643C435.188 152.483 435.507 152.244 435.825 151.926C435.825 151.767 435.825 151.607 435.825 151.448C435.984 151.289 436.064 151.05 436.064 150.732C436.382 149.139 436.86 147.785 437.497 146.671C438.294 145.397 439.647 144.6 441.558 144.282C442.036 144.123 442.434 143.725 442.753 143.088C443.23 142.451 443.708 141.893 444.186 141.415C445.301 139.823 446.415 139.743 447.53 141.176C448.326 142.291 448.884 143.247 449.202 144.043C449.68 144.68 449.998 145.397 450.158 146.193C450.476 146.83 450.795 147.547 451.113 148.343C451.591 149.139 452.228 150.095 453.024 151.209C453.821 152.324 453.9 153.917 453.263 155.987C452.467 158.376 451.193 160.446 449.441 162.198C448.486 163.312 447.371 164.746 446.097 166.497C444.823 168.09 443.549 169.842 442.275 171.753C441.16 173.505 440.045 175.336 438.931 177.247C437.975 178.999 437.258 180.512 436.781 181.786C436.781 182.263 436.86 183.299 437.019 184.891C437.179 186.324 437.736 187.439 438.692 188.235C439.169 188.395 439.966 188.235 441.08 187.758C442.354 187.28 443.628 186.802 444.902 186.324C446.176 185.687 447.371 185.13 448.486 184.652C449.76 184.015 450.636 183.697 451.113 183.697H451.591C452.387 181.945 453.024 180.989 453.502 180.83C453.98 180.512 455.254 180.512 457.324 180.83C457.961 180.83 458.439 180.91 458.757 181.069C458.757 180.91 458.837 180.83 458.996 180.83C458.996 180.034 459.474 179.636 460.429 179.636C460.589 179.476 460.668 179.397 460.668 179.397C460.668 179.238 460.748 179.078 460.907 178.919C461.066 178.919 461.226 178.839 461.385 178.68C462.181 177.725 463.296 176.769 464.729 175.814C466.163 174.858 467.675 173.903 469.268 172.947C470.86 171.992 472.373 171.195 473.807 170.558L476.912 168.886ZM536.295 158.853C537.41 159.49 538.127 160.526 538.445 161.959C538.764 163.233 538.605 164.348 537.968 165.303L537.49 165.781C535.26 167.692 533.031 169.683 530.801 171.753C528.572 173.664 526.024 175.256 523.157 176.53C522.839 177.645 522.281 178.441 521.485 178.919C520.53 180.034 519.335 181.149 517.902 182.263C516.628 183.378 515.274 184.413 513.841 185.369C512.567 186.165 511.373 186.882 510.258 187.519C509.302 187.996 508.665 188.235 508.347 188.235C506.277 191.261 503.808 193.809 500.942 195.879C498.075 197.79 495.209 199.781 492.342 201.851C491.386 202.648 490.431 203.285 489.475 203.762C488.361 204.24 487.326 204.877 486.37 205.673C484.937 206.629 483.583 207.027 482.309 206.868C481.035 206.709 479.681 206.231 478.248 205.434C476.974 204.638 475.859 203.683 474.904 202.568C473.789 201.612 472.515 200.975 471.082 200.657C470.763 200.657 470.525 200.498 470.365 200.179C470.206 199.701 469.967 199.303 469.649 198.985C466.782 194.048 465.11 188.554 464.632 182.502C464.314 177.088 465.19 172.151 467.26 167.692C467.26 165.781 467.499 163.949 467.977 162.198C468.454 160.446 469.33 158.774 470.604 157.181C471.4 156.385 471.878 155.589 472.037 154.793C472.197 153.837 472.436 152.961 472.754 152.165C473.073 151.369 473.471 150.652 473.948 150.015C474.267 149.219 474.904 148.741 475.859 148.582C476.496 146.671 477.532 145.078 478.965 143.804C480.398 142.53 481.513 141.017 482.309 139.265C482.628 138.469 482.946 137.832 483.265 137.354C483.424 136.877 483.663 136.479 483.981 136.16C484.141 135.682 484.459 135.284 484.937 134.966C485.255 134.647 485.813 134.249 486.609 133.771C486.927 133.453 487.166 133.214 487.326 133.055C487.485 132.736 487.724 132.418 488.042 132.099C488.838 131.144 489.396 130.347 489.714 129.71C489.874 129.073 490.59 128.436 491.864 127.799C493.138 127.162 493.935 126.207 494.253 124.933C494.572 123.659 495.368 122.863 496.642 122.544C497.12 122.385 497.358 122.146 497.358 121.827C497.518 121.35 497.597 120.872 497.597 120.394C497.597 119.916 497.677 119.518 497.836 119.2C497.995 118.881 498.314 118.642 498.792 118.483C499.747 118.165 500.225 117.687 500.225 117.05C500.384 116.254 500.623 115.537 500.942 114.9C501.419 114.104 501.897 113.387 502.375 112.75C502.853 112.113 503.569 111.795 504.525 111.795C505.48 111.795 506.117 111.635 506.436 111.317C506.754 110.839 506.515 110.202 505.719 109.406C505.719 109.247 505.799 109.008 505.958 108.689C506.277 108.371 506.595 108.052 506.914 107.734C509.302 106.3 511.611 104.867 513.841 103.434C516.23 101.841 518.618 100.328 521.007 98.8952C522.281 98.099 523.555 97.3027 524.829 96.5064C526.103 95.5509 527.377 94.5158 528.651 93.401C530.403 91.8085 531.996 91.0123 533.429 91.0123C535.021 90.853 536.932 91.4104 539.162 92.6844C540.436 93.4807 541.63 94.3565 542.745 95.312C544.019 96.1083 545.054 97.1434 545.851 98.4175C547.284 99.6915 548.239 101.125 548.717 102.717C549.354 104.151 549.911 105.743 550.389 107.495C551.026 109.724 550.469 111.715 548.717 113.467C548.876 113.785 548.717 114.104 548.239 114.422C547.921 115.537 547.682 116.652 547.523 117.767C547.363 118.881 546.806 119.837 545.851 120.633C543.939 125.888 540.993 130.507 537.012 134.488C536.216 135.284 535.658 136.24 535.34 137.354C535.181 138.31 534.623 139.106 533.668 139.743C532.712 140.38 531.757 141.017 530.801 141.654C530.005 142.291 529.209 142.928 528.412 143.565C527.616 144.202 526.74 144.362 525.785 144.043C524.829 143.725 524.192 143.088 523.874 142.132C523.396 140.539 523.157 139.106 523.157 137.832C523.157 136.399 523.794 134.966 525.068 133.532C526.342 131.94 527.775 130.586 529.368 129.472C531.12 128.197 532.314 126.446 532.951 124.216C534.703 123.42 535.818 122.226 536.295 120.633C536.932 119.041 537.649 117.528 538.445 116.094C538.286 115.457 538.366 114.9 538.684 114.422C539.003 113.785 538.764 113.228 537.968 112.75C536.216 113.228 534.623 113.865 533.19 114.661C531.916 115.457 530.642 116.413 529.368 117.528C527.457 119.12 525.546 120.633 523.635 122.066C521.883 123.5 520.211 125.172 518.618 127.083C517.663 128.197 516.707 129.233 515.752 130.188C514.796 131.144 514 132.338 513.363 133.771C512.726 135.205 511.691 136.479 510.258 137.593C508.984 138.708 507.63 139.743 506.197 140.699C505.241 141.336 504.365 141.973 503.569 142.61C502.773 143.247 502.056 143.963 501.419 144.76C500.464 146.034 499.588 147.069 498.792 147.865C498.155 148.502 497.518 149.219 496.881 150.015C496.403 150.652 495.925 151.528 495.447 152.643C495.129 153.598 494.81 154.872 494.492 156.465C494.333 157.42 493.775 158.455 492.82 159.57C490.59 161.64 488.838 163.949 487.564 166.497C486.29 168.886 485.016 171.434 483.742 174.142C483.265 175.416 482.628 176.61 481.831 177.725C481.035 178.68 480.239 179.715 479.443 180.83C478.169 182.263 477.293 183.936 476.815 185.847C476.178 187.758 475.541 189.589 474.904 191.341C474.585 191.978 474.426 192.694 474.426 193.491C474.267 194.128 474.585 194.685 475.382 195.163C475.859 195.641 476.417 195.8 477.054 195.641C477.691 195.481 478.248 195.242 478.726 194.924L483.504 193.013C485.096 192.376 486.609 191.659 488.042 190.863C489.475 190.067 490.829 189.589 492.103 189.43C493.377 187.678 494.333 186.563 494.97 186.085C495.607 185.608 496.881 185.05 498.792 184.413C499.747 184.413 500.464 184.174 500.942 183.697C501.579 182.9 502.454 182.343 503.569 182.025C504.684 181.547 505.799 181.228 506.914 181.069C508.028 180.751 509.063 180.432 510.019 180.113C510.974 179.795 511.532 179.238 511.691 178.441C512.01 177.327 512.806 176.61 514.08 176.291C515.354 175.814 516.389 175.017 517.185 173.903C517.504 173.266 518.061 172.708 518.857 172.231C519.654 171.753 520.45 171.514 521.246 171.514C523.635 170.081 525.626 168.329 527.218 166.259C528.97 164.188 530.801 162.277 532.712 160.526C533.19 160.048 533.668 159.57 534.146 159.092C534.783 158.615 535.499 158.535 536.295 158.853ZM608.436 91.0123C610.825 90.6938 613.373 91.1715 616.08 92.4455C618.788 93.7195 620.699 95.3917 621.813 97.4619C622.928 99.5322 623.486 101.921 623.486 104.628C623.645 108.928 623.326 113.228 622.53 117.528C621.893 121.668 620.38 125.649 617.991 129.472C616.24 132.02 615.125 134.647 614.647 137.354C614.329 138.151 614.01 139.027 613.692 139.982C613.373 140.778 612.895 141.495 612.258 142.132C610.666 143.565 609.233 145.158 607.959 146.91C606.844 148.661 605.729 150.493 604.614 152.404C603.5 154.155 602.305 155.907 601.031 157.659C599.757 159.252 598.244 160.764 596.493 162.198C594.9 163.472 593.626 165.144 592.67 167.214C591.874 169.125 590.839 170.957 589.565 172.708C587.176 175.893 584.788 179.158 582.399 182.502C580.01 185.847 577.223 188.872 574.038 191.58C573.72 193.013 572.923 193.809 571.649 193.968C571.649 195.242 571.012 196.039 569.738 196.357C568.623 199.542 566.792 202.011 564.244 203.762C561.855 205.514 559.546 207.346 557.317 209.257C555.087 211.168 553.256 212.521 551.822 213.317C550.548 214.273 549.354 214.671 548.239 214.512C547.125 214.512 546.01 213.954 544.895 212.84C543.621 211.725 541.949 210.132 539.879 208.062C535.897 204.24 533.429 200.02 532.473 195.402C531.518 190.783 531.199 186.006 531.518 181.069C531.996 174.38 533.27 167.931 535.34 161.72C537.251 155.35 539.799 149.219 542.984 143.326C544.099 141.256 545.293 139.265 546.567 137.354C547.682 135.284 548.637 133.134 549.434 130.905C552.141 124.694 556.043 119.12 561.139 114.183C564.324 111.317 566.951 111.635 569.022 115.139C570.773 117.687 571.888 120.315 572.366 123.022C572.525 124.455 572.446 125.729 572.127 126.844C571.968 127.959 571.49 129.073 570.694 130.188C563.527 139.265 558.033 149.298 554.211 160.287C554.052 160.764 553.813 161.242 553.495 161.72C553.335 162.198 553.096 162.675 552.778 163.153C551.982 164.427 551.026 166.259 549.911 168.647C548.797 171.036 547.762 173.584 546.806 176.291C545.851 178.839 545.054 181.388 544.417 183.936C543.78 186.324 543.382 188.315 543.223 189.907C543.064 190.704 543.064 191.58 543.223 192.535C543.223 193.491 543.302 194.367 543.462 195.163C549.832 193.411 554.848 190.465 558.511 186.324C559.307 185.369 560.104 184.493 560.9 183.697C561.855 182.741 563.129 182.343 564.722 182.502C566.633 180.273 568.544 178.202 570.455 176.291C572.525 174.221 574.197 171.673 575.471 168.647C576.427 166.418 577.78 164.427 579.532 162.675C581.284 160.764 582.956 158.853 584.549 156.942C587.893 151.209 591.158 145.556 594.343 139.982C597.687 134.249 601.111 128.596 604.614 123.022C606.366 120.315 607.879 117.528 609.153 114.661C610.586 111.795 611.383 108.689 611.542 105.345C608.038 105.663 605.331 106.937 603.42 109.167C601.509 111.237 599.439 113.307 597.209 115.378C596.254 116.493 595.378 117.767 594.581 119.2C593.785 120.474 592.591 121.35 590.998 121.827C590.361 126.446 588.61 130.188 585.743 133.055C582.876 135.762 579.851 138.469 576.666 141.176C576.188 138.947 575.949 137.036 575.949 135.443C575.949 133.851 576.188 132.258 576.666 130.666C577.143 128.914 577.94 127.003 579.054 124.933C580.328 122.863 582.001 120.315 584.071 117.289C584.389 115.855 584.708 114.502 585.026 113.228C585.345 111.795 586.46 110.919 588.371 110.6C590.441 107.734 592.432 105.026 594.343 102.478C596.413 99.7711 598.722 97.2231 601.27 94.8343C603.659 92.6048 606.048 91.3308 608.436 91.0123ZM752.86 12.4216C754.612 16.0844 755.886 20.0657 756.682 24.3655C757.478 28.6653 757.558 32.8058 756.921 36.7871C756.443 40.7684 755.328 44.6701 753.577 48.4921C752.303 51.6771 750.869 54.7029 749.277 57.5694C747.844 60.436 746.331 63.3821 744.738 66.4079C744.42 66.8857 744.101 67.443 743.783 68.08C743.623 68.5578 743.305 68.9559 742.827 69.2744C738.687 72.3002 734.626 75.5649 730.644 79.0684C726.822 82.4127 722.363 84.9607 717.267 86.7125C716.79 88.1457 715.914 88.8624 714.64 88.8624V89.1012C714.64 90.6938 714.162 91.8881 713.206 92.6844C712.251 93.4807 711.136 94.038 709.862 94.3565C705.722 95.4713 701.74 96.8249 697.918 98.4175C694.096 99.8507 690.354 101.443 686.691 103.195C686.373 103.354 685.974 103.434 685.497 103.434C685.019 103.275 684.621 103.195 684.302 103.195C684.462 103.832 684.462 104.389 684.302 104.867C684.78 105.663 685.258 106.46 685.736 107.256C686.213 107.893 686.373 108.689 686.213 109.645C687.487 110.122 688.204 110.759 688.363 111.556C688.522 112.352 688.522 113.307 688.363 114.422C690.115 116.493 691.15 118.722 691.469 121.111C691.787 123.5 691.787 126.048 691.469 128.755C691.469 129.392 691.309 129.949 690.991 130.427C690.832 130.905 690.593 131.383 690.274 131.86C687.885 138.39 685.258 144.68 682.391 150.732C679.525 156.783 675.942 162.596 671.642 168.17L668.297 172.469L664.953 176.769C664.635 178.521 664.077 180.193 663.281 181.786C662.485 183.219 661.131 184.334 659.22 185.13C655.08 186.245 652.213 188.633 650.621 192.296C650.461 192.615 650.063 192.933 649.426 193.252C648.948 193.411 648.55 193.65 648.232 193.968C646.162 197.95 643.454 200.737 640.11 202.329C636.925 204.081 633.183 204.957 628.883 204.957C625.22 204.957 622.433 203.444 620.522 200.418C619.407 198.666 618.293 196.915 617.178 195.163C616.063 193.252 616.381 191.022 618.133 188.474C617.337 185.289 617.178 182.184 617.655 179.158C617.974 176.132 618.77 173.106 620.044 170.081C619.726 167.533 619.965 165.144 620.761 162.914C621.398 160.685 622.115 158.455 622.911 156.226C623.866 153.518 624.822 150.891 625.777 148.343C626.733 145.795 627.848 143.326 629.122 140.938C631.67 136.16 634.775 131.303 638.438 126.366C639.234 125.251 639.314 124.375 638.677 123.738C638.199 123.101 637.801 122.385 637.482 121.589C636.686 121.27 635.89 120.952 635.094 120.633C634.457 120.315 634.138 119.598 634.138 118.483C633.342 117.687 632.546 116.891 631.749 116.094C630.953 115.139 630.396 114.183 630.077 113.228C629.759 112.113 629.201 110.919 628.405 109.645C627.609 108.371 627.848 107.176 629.122 106.062C630.396 104.947 631.67 104.708 632.944 105.345C634.377 105.823 635.651 106.778 636.766 108.211C636.925 108.53 637.084 108.769 637.243 108.928C637.403 108.928 637.642 109.087 637.96 109.406C638.597 108.291 639.393 107.495 640.349 107.017C641.304 106.38 642.26 105.982 643.215 105.823C644.33 105.504 645.365 105.186 646.321 104.867C647.436 104.549 648.391 103.991 649.187 103.195C649.506 102.717 649.824 102.001 650.143 101.045C650.939 99.4526 651.815 98.0193 652.77 96.7453C653.726 95.4713 655.159 94.675 657.07 94.3565C657.07 93.7195 657.309 93.1622 657.787 92.6844C657.787 87.9069 660.176 84.2441 664.953 81.696C665.59 81.059 666.307 80.5017 667.103 80.0239C667.899 79.3869 668.377 78.6703 668.536 77.874C668.855 75.6445 669.571 73.8927 670.686 72.6187C671.801 71.1854 673.314 69.8318 675.225 68.5578C677.614 66.9653 679.764 65.1339 681.675 63.0636C683.745 60.9933 685.337 58.4453 686.452 55.4195C686.611 55.101 686.93 54.8622 687.408 54.7029C688.045 54.3844 688.602 54.0659 689.08 53.7474C689.717 52.9511 690.433 52.3141 691.23 51.8364C692.026 51.3586 692.583 50.7216 692.902 49.9254C694.654 46.1033 696.724 42.6794 699.113 39.6536C701.501 36.4686 704.129 33.3632 706.996 30.3374C711.773 25.2414 716.79 20.4638 722.045 16.0048C727.3 11.5457 732.555 7.00707 737.811 2.38878C739.563 0.796264 740.757 0.0796317 741.394 0.238881C742.031 0.398131 743.225 1.19439 744.977 2.62765C748.64 5.33493 751.268 8.59959 752.86 12.4216ZM671.881 149.537C673.155 144.6 674.747 139.823 676.658 135.205C678.569 130.586 680.082 125.729 681.197 120.633C680.878 120.474 680.639 120.315 680.48 120.155C680.48 119.996 680.321 119.837 680.002 119.678C680.639 119.041 681.197 118.642 681.675 118.483C681.675 117.368 681.436 116.493 680.958 115.855C680.48 115.218 679.843 114.82 679.047 114.661C678.41 114.343 677.693 114.104 676.897 113.944C676.101 113.785 675.384 113.546 674.747 113.228C672.836 112.113 671.164 111.874 669.731 112.511C668.457 112.989 667.262 113.865 666.148 115.139C664.555 116.891 663.042 118.802 661.609 120.872C660.335 122.783 658.981 124.694 657.548 126.605C657.867 127.879 657.309 128.596 655.876 128.755V129.472C655.876 129.79 655.796 130.109 655.637 130.427C655.637 130.586 655.637 130.825 655.637 131.144C653.885 134.329 652.213 137.593 650.621 140.938C649.028 144.123 647.436 147.387 645.843 150.732C645.365 151.528 644.888 152.404 644.41 153.359C644.091 154.155 643.693 154.952 643.215 155.748C640.827 160.526 638.916 164.507 637.482 167.692C636.049 170.877 634.934 173.743 634.138 176.291C633.342 178.68 632.784 180.989 632.466 183.219C632.307 185.448 632.307 187.837 632.466 190.385C633.74 189.748 634.855 189.191 635.81 188.713C636.925 188.076 638.119 187.439 639.393 186.802C639.393 186.006 639.473 185.369 639.632 184.891H641.065C643.932 181.706 646.719 178.521 649.426 175.336C652.293 172.151 655.398 169.284 658.742 166.736C660.335 165.622 661.689 164.348 662.803 162.914C663.918 161.322 664.874 159.809 665.67 158.376C666.625 156.783 667.581 155.27 668.536 153.837C669.492 152.244 670.607 150.811 671.881 149.537ZM744.26 37.9815C745.375 35.2742 746.57 32.6466 747.844 30.0985C749.118 27.3913 749.357 24.3655 748.56 21.0212C747.764 21.3397 747.127 21.6582 746.649 21.9767C746.171 22.2952 745.773 22.6137 745.455 22.9322C742.907 26.595 740.04 29.5412 736.855 31.7707C735.422 32.5669 734.148 33.6021 733.033 34.8761C731.918 35.9909 730.724 37.1852 729.45 38.4592C726.265 42.122 723 45.7848 719.656 49.4476C716.312 52.9511 712.729 56.1362 708.907 59.0027C705.085 62.0285 701.9 65.3728 699.352 69.0355C696.804 72.5391 694.415 76.3611 692.185 80.5017C693.778 80.1832 695.052 79.8646 696.007 79.5462C698.715 78.7499 701.263 77.7148 703.651 76.4407C706.04 75.0075 708.747 74.5297 711.773 75.0075C711.932 75.1667 712.092 75.2464 712.251 75.2464C712.41 75.2464 712.569 75.326 712.729 75.4852C713.366 75.0075 713.923 74.6093 714.401 74.2908C715.038 73.8131 715.754 73.4946 716.551 73.3353C717.347 73.0168 718.143 72.778 718.939 72.6187C719.736 72.3002 719.975 71.7428 719.656 70.9466C719.178 69.0355 719.417 67.6023 720.373 66.6468C721.328 65.6913 722.443 64.7358 723.717 63.7802C728.176 60.2767 732.157 56.4547 735.661 52.3141C739.164 48.1736 742.031 43.396 744.26 37.9815ZM796.27 168.886C797.863 168.249 799.137 168.09 800.092 168.409C801.207 168.727 801.765 170.001 801.765 172.231H801.526C801.526 173.505 800.889 174.38 799.615 174.858C797.863 176.291 795.713 177.964 793.165 179.875C790.617 181.786 788.626 183.936 787.193 186.324C783.69 188.554 780.345 191.102 777.16 193.968C774.134 196.676 770.79 199.144 767.127 201.374V201.612C765.694 203.364 763.942 204.32 761.872 204.479H762.111C761.633 205.275 760.996 205.753 760.2 205.912C759.404 206.231 758.607 206.549 757.811 206.868C756.378 207.664 754.945 207.823 753.511 207.346C752.078 207.027 750.724 206.39 749.45 205.434C746.425 203.046 744.036 200.418 742.284 197.552C740.692 194.526 740.055 191.022 740.373 187.041C740.373 186.722 740.373 186.324 740.373 185.847C740.532 185.369 740.612 184.971 740.612 184.652C739.816 182.582 739.656 180.512 740.134 178.441C739.816 179.238 739.736 178.919 739.895 177.486C740.055 175.893 740.453 173.982 741.09 171.753C740.612 172.071 740.134 172.39 739.656 172.708C739.338 173.027 738.94 173.345 738.462 173.664C737.347 174.619 736.471 175.654 735.834 176.769C735.197 177.884 734.401 178.919 733.446 179.875C732.49 180.671 732.172 181.467 732.49 182.263C732.809 183.06 732.411 183.776 731.296 184.413C730.977 184.732 730.261 185.448 729.146 186.563C728.19 187.678 727.553 188.395 727.235 188.713C727.076 189.828 726.2 190.385 724.607 190.385C723.174 192.615 721.422 195.322 719.352 198.507C717.441 201.533 714.415 204.559 710.275 207.584C709.319 208.381 708.284 209.018 707.169 209.495C706.054 209.973 705.019 210.61 704.064 211.406C702.63 212.362 701.277 212.76 700.003 212.601C698.729 212.442 697.375 211.964 695.942 211.168C694.668 210.371 693.553 209.416 692.598 208.301C691.642 207.346 690.368 206.709 688.776 206.39C688.298 206.39 687.9 205.833 687.581 204.718C686.148 202.17 685.033 199.542 684.237 196.835C683.281 193.968 682.724 191.102 682.565 188.235C682.246 182.821 683.043 177.804 684.954 173.186C684.954 169.205 686.148 165.781 688.537 162.914C689.174 162.118 689.651 161.322 689.97 160.526C690.129 159.57 690.368 158.694 690.687 157.898C691.005 157.102 691.324 156.385 691.642 155.748C691.961 154.952 692.677 154.474 693.792 154.315C694.429 152.404 695.464 150.811 696.897 149.537C698.331 148.263 699.445 146.75 700.242 144.999C701.675 141.654 703.984 138.867 707.169 136.638C707.488 136.479 707.965 135.921 708.602 134.966C709.399 134.169 710.036 133.214 710.513 132.099C710.991 130.984 711.787 130.109 712.902 129.472C714.176 128.834 714.972 127.879 715.291 126.605C715.609 125.331 716.406 124.535 717.68 124.216C718.795 123.898 719.113 123.261 718.635 122.305C718.317 121.19 718.715 120.474 719.83 120.155C720.785 119.837 721.263 119.359 721.263 118.722C721.422 118.085 721.661 117.448 721.98 116.811C722.457 116.015 722.935 115.298 723.413 114.661C723.891 114.024 724.607 113.626 725.563 113.467C727.792 113.467 728.19 112.67 726.757 111.078C726.916 110.759 727.076 110.521 727.235 110.361L727.951 109.645C730.34 108.052 732.649 106.539 734.879 105.106C737.268 103.673 739.656 102.16 742.045 100.567C743.319 99.7711 744.593 98.9748 745.867 98.1786C747.141 97.2231 748.415 96.2676 749.689 95.312C751.441 93.7195 753.034 92.9233 754.467 92.9233C756.059 92.764 757.97 93.3214 760.2 94.5954C761.474 95.3917 762.668 96.1879 763.783 96.9842C765.057 97.7804 766.092 98.8156 766.888 100.09C768.322 101.364 769.277 102.797 769.755 104.389C770.392 105.982 770.949 107.654 771.427 109.406C772.064 111.476 771.507 113.387 769.755 115.139C769.914 115.457 769.835 115.855 769.516 116.333C769.038 117.289 768.72 118.324 768.561 119.439C768.561 120.553 768.003 121.509 766.888 122.305C764.818 127.879 761.872 132.497 758.05 136.16C757.254 136.956 756.696 137.912 756.378 139.027C756.219 139.982 755.661 140.778 754.706 141.415C753.75 142.052 752.795 142.689 751.839 143.326C751.043 143.963 750.247 144.6 749.45 145.237C748.654 145.874 747.778 146.034 746.823 145.715C745.867 145.397 745.23 144.76 744.912 143.804C744.434 142.212 744.195 140.778 744.195 139.504C744.195 138.23 744.832 136.797 746.106 135.205C747.38 133.612 748.813 132.258 750.406 131.144C752.158 130.029 753.352 128.357 753.989 126.127C755.741 125.331 756.856 124.137 757.333 122.544C757.97 120.792 758.687 119.2 759.483 117.767C759.324 117.289 759.404 116.731 759.722 116.094C760.041 115.457 759.802 114.9 759.006 114.422C757.254 114.9 755.661 115.537 754.228 116.333C752.954 117.13 751.68 118.085 750.406 119.2C748.495 120.792 746.584 122.305 744.673 123.738C742.921 125.172 741.249 126.844 739.656 128.755C738.701 129.87 737.745 130.905 736.79 131.86C735.834 132.816 735.038 134.01 734.401 135.443C733.764 136.877 732.729 138.23 731.296 139.504C730.022 140.619 728.668 141.575 727.235 142.371C725.165 143.645 723.572 145.078 722.457 146.671C720.706 149.059 718.715 151.448 716.485 153.837C714.415 156.067 713.061 158.853 712.424 162.198C712.106 163.312 711.469 164.348 710.513 165.303C708.443 167.373 706.771 169.683 705.497 172.231C704.064 174.619 702.79 177.167 701.675 179.875C700.56 182.104 699.127 184.334 697.375 186.563C695.942 187.996 694.986 189.669 694.509 191.58C694.031 193.491 693.394 195.322 692.598 197.074C692.438 197.711 692.279 198.427 692.12 199.224C691.961 199.861 692.279 200.418 693.075 200.896C693.712 201.374 694.349 201.533 694.986 201.374C695.464 201.214 696.022 200.975 696.659 200.657C698.251 200.02 699.525 199.303 700.481 198.507C701.277 197.711 702.392 196.915 703.825 196.118L707.408 194.685C709.001 194.048 710.195 193.65 710.991 193.491C712.265 191.58 713.141 189.987 713.619 188.713C714.256 187.28 715.53 186.324 717.441 185.847C717.759 185.687 718.078 185.608 718.396 185.608C718.874 185.608 719.193 185.448 719.352 185.13C720.626 183.378 721.82 181.706 722.935 180.113C724.209 178.521 725.483 176.849 726.757 175.097C727.076 174.779 727.474 174.619 727.951 174.619C728.429 174.46 728.827 174.221 729.146 173.903C729.624 173.743 730.101 173.664 730.579 173.664C731.057 173.505 731.455 173.266 731.774 172.947C733.048 171.673 733.764 170.479 733.923 169.364C734.242 168.249 735.197 167.214 736.79 166.259C737.586 165.781 738.462 165.303 739.418 164.825C740.532 164.348 741.329 163.312 741.806 161.72C742.125 160.764 742.842 160.127 743.956 159.809C745.23 159.331 746.265 158.535 747.062 157.42C747.539 156.624 748.256 155.987 749.212 155.509C750.167 153.917 751.6 153.2 753.511 153.359C753.83 153.041 754.069 152.802 754.228 152.643C754.546 152.483 754.865 152.244 755.184 151.926C755.184 151.767 755.184 151.607 755.184 151.448C755.343 151.289 755.422 151.05 755.422 150.732C755.741 149.139 756.219 147.785 756.856 146.671C757.652 145.397 759.006 144.6 760.917 144.282C761.394 144.123 761.792 143.725 762.111 143.088C762.589 142.451 763.066 141.893 763.544 141.415C764.659 139.823 765.774 139.743 766.888 141.176C767.685 142.291 768.242 143.247 768.561 144.043C769.038 144.68 769.357 145.397 769.516 146.193C769.835 146.83 770.153 147.547 770.472 148.343C770.949 149.139 771.586 150.095 772.383 151.209C773.179 152.324 773.259 153.917 772.622 155.987C771.825 158.376 770.551 160.446 768.8 162.198C767.844 163.312 766.729 164.746 765.455 166.497C764.181 168.09 762.907 169.842 761.633 171.753C760.518 173.505 759.404 175.336 758.289 177.247C757.333 178.999 756.617 180.512 756.139 181.786C756.139 182.263 756.219 183.299 756.378 184.891C756.537 186.324 757.095 187.439 758.05 188.235C758.528 188.395 759.324 188.235 760.439 187.758C761.713 187.28 762.987 186.802 764.261 186.324C765.535 185.687 766.729 185.13 767.844 184.652C769.118 184.015 769.994 183.697 770.472 183.697H770.949C771.746 181.945 772.383 180.989 772.86 180.83C773.338 180.512 774.612 180.512 776.682 180.83C777.319 180.83 777.797 180.91 778.116 181.069C778.116 180.91 778.195 180.83 778.355 180.83C778.355 180.034 778.832 179.636 779.788 179.636C779.947 179.476 780.027 179.397 780.027 179.397C780.027 179.238 780.106 179.078 780.266 178.919C780.425 178.919 780.584 178.839 780.743 178.68C781.54 177.725 782.654 176.769 784.088 175.814C785.521 174.858 787.034 173.903 788.626 172.947C790.219 171.992 791.732 171.195 793.165 170.558L796.27 168.886ZM902.108 167.453C902.904 166.179 903.939 165.542 905.213 165.542C906.487 165.542 907.523 165.94 908.319 166.736C909.274 167.373 909.832 168.409 909.991 169.842C910.15 171.116 909.513 172.469 908.08 173.903C906.647 175.336 905.452 176.53 904.497 177.486C903.541 178.282 902.506 179.158 901.391 180.113C900.436 180.91 899.241 181.865 897.808 182.98C896.375 183.936 894.464 185.13 892.075 186.563C890.801 187.359 889.448 188.076 888.014 188.713C886.581 189.35 885.387 190.465 884.431 192.057C883.635 193.331 882.52 194.207 881.087 194.685C879.654 195.004 878.3 195.481 877.026 196.118C875.274 196.915 873.602 197.631 872.009 198.268C870.576 198.905 869.223 200.1 867.949 201.851C866.675 203.762 865.002 204.877 862.932 205.196C861.021 205.673 858.951 205.753 856.721 205.434C856.403 205.434 856.005 205.434 855.527 205.434C855.208 205.594 854.89 205.514 854.571 205.196C850.431 201.374 847.564 197.153 845.972 192.535C844.379 187.917 844.539 182.821 846.45 177.247C847.724 173.584 848.918 170.001 850.033 166.497C851.307 162.994 852.979 159.65 855.049 156.465C855.368 155.987 855.527 155.43 855.527 154.793C855.527 153.996 855.607 153.12 855.766 152.165C853.536 152.165 850.988 152.244 848.122 152.404C845.255 152.563 842.389 152.802 839.522 153.12C836.656 153.439 833.948 153.837 831.4 154.315C828.852 154.793 826.862 155.35 825.428 155.987C822.243 157.261 819.218 159.65 816.351 163.153C813.644 166.497 811.653 169.603 810.379 172.469C808.309 176.61 806.318 180.751 804.407 184.891C802.337 188.872 800.426 192.933 798.674 197.074C797.082 201.055 795.33 204.32 793.419 206.868C792.463 208.142 791.428 208.699 790.313 208.54C789.199 208.381 788.243 207.584 787.447 206.151C783.943 203.603 782.351 200.816 782.669 197.79C782.829 194.605 783.704 191.181 785.297 187.519C786.093 185.608 786.969 183.776 787.925 182.025C788.721 180.113 789.676 178.282 790.791 176.53C791.587 175.575 792.304 174.619 792.941 173.664C793.419 172.549 793.737 171.355 793.897 170.081C794.374 167.373 793.26 166.259 790.552 166.736C789.915 166.736 789.119 166.577 788.164 166.259C786.89 166.736 785.695 166.896 784.58 166.736C783.306 166.577 782.271 165.86 781.475 164.586C780.997 163.79 780.679 162.914 780.519 161.959C780.201 160.844 779.882 159.729 779.564 158.615C778.927 154.793 780.918 152.085 785.536 150.493C789.836 148.9 794.135 147.387 798.435 145.954C802.576 144.362 806.876 142.849 811.335 141.415C813.246 140.778 814.281 139.345 814.44 137.116C814.918 134.408 815.953 131.94 817.545 129.71C819.138 127.481 820.571 125.172 821.845 122.783C822.641 121.35 823.438 120.315 824.234 119.678C825.19 118.881 825.986 118.085 826.623 117.289C827.101 116.333 827.419 115.537 827.578 114.9C827.897 114.263 828.295 113.387 828.773 112.272C830.365 109.406 831.958 106.539 833.55 103.673C835.302 100.806 837.054 98.0193 838.806 95.312C840.08 93.0825 841.513 91.8881 843.105 91.7289C844.698 91.5696 846.131 92.5251 847.405 94.5954C849.475 97.6212 850.431 100.886 850.272 104.389C850.272 107.893 848.918 111.317 846.211 114.661C843.663 117.846 841.274 121.111 839.044 124.455C836.974 127.64 835.143 131.064 833.55 134.727C833.072 135.682 833.072 136.479 833.55 137.116C834.028 137.593 834.665 137.991 835.461 138.31C837.691 138.947 840.159 139.027 842.866 138.549C845.096 138.071 846.688 137.673 847.644 137.354C848.759 136.877 849.714 136.558 850.51 136.399C851.307 136.24 852.262 136.16 853.377 136.16C854.492 136.16 856.244 136.24 858.632 136.399C860.862 136.717 863.012 136.558 865.082 135.921C867.312 135.284 869.541 134.568 871.771 133.771C873.841 133.294 874.398 132.179 873.443 130.427C873.124 129.631 873.283 128.835 873.92 128.038C876.946 123.42 879.892 118.881 882.759 114.422C885.785 109.963 888.89 105.504 892.075 101.045C892.871 99.7711 893.907 99.2137 895.181 99.373C896.455 99.373 897.569 99.9303 898.525 101.045C901.232 104.071 902.745 107.813 903.064 112.272C903.541 116.731 902.825 120.713 900.914 124.216C900.117 125.331 899.401 126.446 898.764 127.56C898.127 128.516 897.41 129.472 896.614 130.427C894.225 133.612 891.597 136.638 888.731 139.504C886.024 142.371 883.874 145.636 882.281 149.298C880.529 152.961 878.539 156.385 876.309 159.57C874.239 162.755 872.169 166.099 870.098 169.603C868.347 172.788 866.675 176.132 865.082 179.636C863.649 182.98 862.136 186.324 860.543 189.669C864.206 190.465 867.312 189.828 869.86 187.758C872.567 186.006 875.433 184.413 878.459 182.98C881.485 181.388 883.953 179.636 885.864 177.725C889.049 175.973 891.836 174.38 894.225 172.947C896.614 171.514 899.241 169.683 902.108 167.453ZM977.017 91.0123C979.405 90.6938 981.953 91.1715 984.661 92.4455C987.368 93.7195 989.279 95.3917 990.394 97.4619C991.508 99.5322 992.066 101.921 992.066 104.628C992.225 108.928 991.907 113.228 991.11 117.528C990.473 121.668 988.96 125.649 986.572 129.472C984.82 132.02 983.705 134.647 983.227 137.354C982.909 138.151 982.59 139.027 982.272 139.982C981.953 140.778 981.476 141.495 980.839 142.132C979.246 143.565 977.813 145.158 976.539 146.91C975.424 148.661 974.309 150.493 973.195 152.404C972.08 154.155 970.885 155.907 969.611 157.659C968.337 159.252 966.824 160.764 965.073 162.198C963.48 163.472 962.206 165.144 961.251 167.214C960.454 169.125 959.419 170.957 958.145 172.708C955.756 175.893 953.368 179.158 950.979 182.502C948.59 185.847 945.803 188.872 942.618 191.58C942.3 193.013 941.503 193.809 940.229 193.968C940.229 195.242 939.592 196.039 938.318 196.357C937.204 199.542 935.372 202.011 932.824 203.762C930.435 205.514 928.126 207.346 925.897 209.257C923.667 211.168 921.836 212.521 920.403 213.317C919.129 214.273 917.934 214.671 916.819 214.512C915.705 214.512 914.59 213.954 913.475 212.84C912.201 211.725 910.529 210.132 908.459 208.062C904.477 204.24 902.009 200.02 901.054 195.402C900.098 190.783 899.78 186.006 900.098 181.069C900.576 174.38 901.85 167.931 903.92 161.72C905.831 155.35 908.379 149.219 911.564 143.326C912.679 141.256 913.873 139.265 915.147 137.354C916.262 135.284 917.218 133.134 918.014 130.905C920.721 124.694 924.623 119.12 929.719 114.183C932.904 111.317 935.532 111.635 937.602 115.139C939.354 117.687 940.468 120.315 940.946 123.022C941.105 124.455 941.026 125.729 940.707 126.844C940.548 127.959 940.07 129.073 939.274 130.188C932.108 139.265 926.613 149.298 922.791 160.287C922.632 160.764 922.393 161.242 922.075 161.72C921.916 162.198 921.677 162.675 921.358 163.153C920.562 164.427 919.606 166.259 918.492 168.647C917.377 171.036 916.342 173.584 915.386 176.291C914.431 178.839 913.634 181.388 912.997 183.936C912.36 186.324 911.962 188.315 911.803 189.907C911.644 190.704 911.644 191.58 911.803 192.535C911.803 193.491 911.883 194.367 912.042 195.163C918.412 193.411 923.428 190.465 927.091 186.324C927.887 185.369 928.684 184.493 929.48 183.697C930.435 182.741 931.71 182.343 933.302 182.502C935.213 180.273 937.124 178.202 939.035 176.291C941.105 174.221 942.777 171.673 944.051 168.647C945.007 166.418 946.361 164.427 948.112 162.675C949.864 160.764 951.536 158.853 953.129 156.942C956.473 151.209 959.738 145.556 962.923 139.982C966.267 134.249 969.691 128.596 973.195 123.022C974.946 120.315 976.459 117.528 977.733 114.661C979.166 111.795 979.963 108.689 980.122 105.345C976.618 105.663 973.911 106.937 972 109.167C970.089 111.237 968.019 113.307 965.789 115.378C964.834 116.493 963.958 117.767 963.162 119.2C962.365 120.474 961.171 121.35 959.579 121.827C958.942 126.446 957.19 130.188 954.323 133.055C951.457 135.762 948.431 138.469 945.246 141.176C944.768 138.947 944.529 137.036 944.529 135.443C944.529 133.851 944.768 132.258 945.246 130.666C945.724 128.914 946.52 127.003 947.635 124.933C948.909 122.863 950.581 120.315 952.651 117.289C952.97 115.855 953.288 114.502 953.607 113.228C953.925 111.795 955.04 110.919 956.951 110.6C959.021 107.734 961.012 105.026 962.923 102.478C964.993 99.7711 967.302 97.2231 969.85 94.8343C972.239 92.6048 974.628 91.3308 977.017 91.0123Z" fill="black"/>
</svg>
